<svg width="14" height="14" viewBox="0 0 14 14" fill="none" xmlns="http://www.w3.org/2000/svg">
<path d="M13.4653 5.68317L12.6337 5.32673C12.4356 5.24753 12.2772 5.08911 12.1782 4.89109V4.85149C12.099 4.63366 12.099 4.39604 12.1782 4.19802L12.5148 3.36634C12.6931 3.08911 12.6337 2.73267 12.4158 2.51485L11.4852 1.58416C11.2673 1.36634 10.9109 1.32673 10.6535 1.48515L9.80199 1.82178C9.34654 2 8.85148 1.78218 8.67326 1.34653L8.31683 0.534654C8.25743 0.217821 7.9802 0 7.66337 0H6.33663C6.0198 0 5.74257 0.217821 5.68317 0.514852L5.32674 1.34653C5.12872 1.78218 4.63366 1.9802 4.19802 1.82178L3.36634 1.48515C3.10891 1.30693 2.75248 1.34654 2.51485 1.58416L1.58416 2.51485C1.36634 2.73267 1.32673 3.08911 1.48515 3.34653L1.82178 4.19802C2 4.65347 1.78218 5.14852 1.34653 5.32673L0.534653 5.68317C0.217822 5.74257 0 6.0198 0 6.33663V7.66337C0 7.9802 0.217825 8.25743 0.514854 8.31683L1.34653 8.67327C1.78218 8.87129 1.9802 9.36634 1.82178 9.80198L1.48515 10.6337C1.30693 10.9109 1.34654 11.2475 1.58416 11.4851L2.51485 12.4158C2.73268 12.6337 3.08911 12.6733 3.34653 12.5149L4.19802 12.1782C4.65347 12 5.14852 12.2178 5.32674 12.6535L5.68317 13.4653C5.74257 13.7822 6.0198 14 6.33663 14H7.66337C7.9802 14 8.25743 13.7822 8.31683 13.4851L8.67326 12.6535C8.87128 12.2178 9.36634 12.0198 9.80199 12.1782L10.6337 12.5149C10.8911 12.6931 11.2475 12.6535 11.4852 12.4158L12.4158 11.4851C12.6337 11.2673 12.6733 10.9109 12.5148 10.6535L12.1782 9.80198C12 9.34654 12.2178 8.85148 12.6535 8.67327L13.4653 8.31683C13.7822 8.25743 14 7.9802 14 7.66337V6.33663C14 6.0198 13.7822 5.74257 13.4653 5.68317ZM6.9901 9.86139C5.40594 9.86139 4.11881 8.57426 4.11881 6.9901C4.11881 5.40594 5.40594 4.11881 6.9901 4.11881C8.57425 4.11881 9.86139 5.40594 9.86139 6.9901C9.86139 8.57426 8.57425 9.86139 6.9901 9.86139Z" fill="#4A4A4A"/>
</svg>
